<svg width="17" height="18" viewBox="0 0 17 18" fill="none" xmlns="http://www.w3.org/2000/svg">
<path d="M4.44534 3.36604L3.05617 1.96156L1.96799 3.06788L3.34944 4.47235L4.44534 3.36604ZM2.31528 7.80701H0V9.37625H2.31528V7.80701ZM9.26112 0H7.7176V2.31464H9.26112V0ZM15.0107 3.06788L13.9226 1.96156L12.5411 3.36604L13.6293 4.47235L15.0107 3.06788ZM12.5334 13.8172L13.9148 15.2295L15.003 14.1232L13.6138 12.7188L12.5334 13.8172ZM14.6634 7.80701V9.37625H16.9787V7.80701H14.6634ZM8.48936 3.88389C5.93484 3.88389 3.8588 5.99452 3.8588 8.59163C3.8588 11.1887 5.93484 13.2994 8.48936 13.2994C11.0439 13.2994 13.1199 11.1887 13.1199 8.59163C13.1199 5.99452 11.0439 3.88389 8.48936 3.88389ZM7.7176 17.1833H9.26112V14.8686H7.7176V17.1833ZM1.96799 14.1154L3.05617 15.2217L4.43762 13.8094L3.34944 12.7031L1.96799 14.1154Z" fill="#FAFDFF"/>
</svg>
